<svg xmlns="http://www.w3.org/2000/svg" viewBox="0 0 512 512" fill="#2563eb">
  <rect width="512" height="512" rx="64" fill="#2563eb"/>
  <path d="M256 128c-70.7 0-128 57.3-128 128s57.3 128 128 128 128-57.3 128-128-57.3-128-128-128zm0 224c-53 0-96-43-96-96s43-96 96-96 96 43 96 96-43 96-96 96zm0-160c-35.3 0-64 28.7-64 64s28.7 64 64 64 64-28.7 64-64-28.7-64-64-64zm0 96c-17.7 0-32-14.3-32-32s14.3-32 32-32 32 14.3 32 32-14.3 32-32 32z" fill="white"/>
  <path d="M168 256h-32c0-66.3 53.7-120 120-120v32c-48.5 0-88 39.5-88 88zm176 0c0-48.5-39.5-88-88-88v-32c66.3 0 120 53.7 120 120h-32z" fill="white" opacity="0.7"/>
</svg>
